# xmcd CD database file
#
# Track frame offsets:
#	150
#	5623
#	31780
#	50514
#	77246
#	83673
#	114418
#	137993
#	139655
#	154777
#	174155
#	201005
#	209157
#	211763
#	232110
#	242901
#	255283
#	265493
#	288201
#	320986
#
# Disc length: 4465 seconds
#
# Revision: 0
# Processed by: cddbd v1.5.1PL0 Copyright (c) Steve Scherf et al.
# Submitted via: CDex 1.51
#
DISCID=1f116f14
DTITLE=CiRCLES - UnK Muzik from CiRCLES
DYEAR=2004
DGENRE=Salsa
TTITLE0=lira
TTITLE1=interval
TTITLE2=dream that ive seen in a past
TTITLE3=about CiRCLES
TTITLE4=Kwaheri
TTITLE5=Where are you going?
TTITLE6=akihabara ( out - in )
TTITLE7=Dull's Huge Bear
TTITLE8=CLICK Gymnasitcs
TTITLE9=Gero UNK
TTITLE10=D no C Co
TTITLE11=Song for Dully
TTITLE12=Noise
TTITLE13=Ituka with a lot of XXX
TTITLE14=Indo JIN 004
TTITLE15=the Fight
TTITLE16=to gain time ( theremin )
TTITLE17=epilogue
TTITLE18=botu wav mix
TTITLE19=bonus track
EXTD=YEAR: 2004
EXTT0=
EXTT1=
EXTT2=
EXTT3=
EXTT4=
EXTT5=
EXTT6=
EXTT7=
EXTT8=
EXTT9=
EXTT10=
EXTT11=
EXTT12=
EXTT13=
EXTT14=
EXTT15=
EXTT16=
EXTT17=
EXTT18=
EXTT19=
PLAYORDER=
